<?xml version="1.0" encoding="UTF-8" standalone="no"?>
<!DOCTYPE svg PUBLIC "-//W3C//DTD SVG 1.1//EN" "http://www.w3.org/Graphics/SVG/1.1/DTD/svg11.dtd">
<svg xmlns:dc="http://purl.org/dc/elements/1.1/" version="1.1" xmlns="http://www.w3.org/2000/svg" xmlns:xl="http://www.w3.org/1999/xlink" viewBox="815.9418 268.6465 862.3316 339.47656" width="862.3316" height="339.47656">
  <defs/>
  <g id="CDF_-_CGF_1" fill="none" fill-opacity="1" stroke-dasharray="none" stroke-opacity="1" stroke="none">
    <title>CDF - CGF 1</title>
    <g id="CDF_-_CGF_1_Layer_1">
      <title>Layer 1</title>
      <g id="Graphic_27">
        <path d="M 1070.2266 400.88477 L 1154.2266 400.88477 C 1158.6448 400.88477 1162.2266 404.4665 1162.2266 408.88477 L 1162.2266 467.88477 C 1162.2266 472.30304 1158.6448 475.88477 1154.2266 475.88477 L 1070.2266 475.88477 C 1065.8083 475.88477 1062.2266 472.30304 1062.2266 467.88477 L 1062.2266 408.88477 C 1062.2266 404.4665 1065.8083 400.88477 1070.2266 400.88477 Z" fill="#ffa900"/>
        <text transform="translate(1067.2266 423.88477)" fill="white">
          <tspan font-family="Montserrat" font-size="24" fill="white" x="18.864" y="23" xml:space="preserve">CDF</tspan>
        </text>
      </g>
      <g id="Graphic_24">
        <path d="M 844.0589 325.0175 C 810.4418 319.6465 823.8475 274.4315 877.4743 282.1465 C 882.4497 267.1075 944.8105 269.5485 944.4028 282.1465 C 983.5049 266.0335 1033.4751 298.1625 999.9578 314.2755 C 1040.1769 322.0875 999.4503 364.1775 966.4426 357.1465 C 963.801 368.8655 904.7931 372.9665 899.6139 357.1465 C 866.2006 374.0415 796.5286 348.0645 844.0589 325.0175 Z" fill="#ccc"/>
        <text transform="translate(853.142 290.6465)" fill="white">
          <tspan font-family="Montserrat" font-size="24" fill="white" x="40.02036" y="23" xml:space="preserve">Core </tspan>
          <tspan font-family="Montserrat" font-size="24" fill="white" x="16.224362" y="52" xml:space="preserve">Network</tspan>
        </text>
      </g>
      <g id="Graphic_33">
        <path d="M 844.0589 562.49405 C 810.4418 557.12305 823.8475 511.90805 877.4743 519.62305 C 882.4497 504.58405 944.8105 507.02505 944.4028 519.62305 C 983.5049 503.51005 1033.4751 535.63905 999.9578 551.75205 C 1040.1769 559.56405 999.4503 601.65405 966.4426 594.62305 C 963.801 606.34205 904.7931 610.44305 899.6139 594.62305 C 866.2006 611.51805 796.5286 585.54105 844.0589 562.49405 Z" fill="#ccc"/>
        <text transform="translate(853.142 542.62305)" fill="white">
          <tspan font-family="Montserrat" font-size="24" fill="white" x="1.5363616" y="23" xml:space="preserve">Subsystem</tspan>
        </text>
      </g>
      <g id="Graphic_35">
        <path d="M 844.0589 443.75577 C 810.4418 438.38477 823.8475 393.16977 877.4743 400.88477 C 882.4497 385.84577 944.8105 388.28677 944.4028 400.88477 C 983.5049 384.77177 1033.4751 416.90077 999.9578 433.01377 C 1040.1769 440.82577 999.4503 482.91577 966.4426 475.88477 C 963.801 487.60377 904.7931 491.70477 899.6139 475.88477 C 866.2006 492.77977 796.5286 466.80277 844.0589 443.75577 Z" fill="#ccc"/>
        <text transform="translate(853.142 409.38477)" fill="white">
          <tspan font-family="Montserrat" font-size="24" fill="white" x="24.552362" y="23" xml:space="preserve">Service </tspan>
          <tspan font-family="Montserrat" font-size="24" fill="white" x="16.296362" y="52" xml:space="preserve">Element</tspan>
        </text>
      </g>
      <g id="Graphic_39">
        <path d="M 1277.75 400.88477 L 1361.75 400.88477 C 1366.1683 400.88477 1369.75 404.4665 1369.75 408.88477 L 1369.75 467.88477 C 1369.75 472.30304 1366.1683 475.88477 1361.75 475.88477 L 1277.75 475.88477 C 1273.3317 475.88477 1269.75 472.30304 1269.75 467.88477 L 1269.75 408.88477 C 1269.75 404.4665 1273.3317 400.88477 1277.75 400.88477 Z" fill="#ffa900"/>
        <text transform="translate(1274.75 423.88477)" fill="white">
          <tspan font-family="Montserrat" font-size="24" fill="white" x="19.68" y="23" xml:space="preserve">CGF</tspan>
        </text>
      </g>
      <g id="Graphic_43">
        <path d="M 1503.3474 443.75577 C 1471.0234 438.38477 1483.9134 393.16977 1535.4774 400.88477 C 1540.2614 385.84577 1600.2234 388.28677 1599.8314 400.88477 C 1637.4294 384.77177 1685.4774 416.90077 1653.2494 433.01377 C 1691.9214 440.82577 1652.7614 482.91577 1621.0234 475.88477 C 1618.4834 487.60377 1561.7454 491.70477 1556.7654 475.88477 C 1524.6374 492.77977 1457.6454 466.80277 1503.3474 443.75577 Z" fill="#ccc"/>
        <text transform="translate(1512.2734 409.38477)" fill="white">
          <tspan font-family="Montserrat" font-size="24" fill="white" x="26.66" y="23" xml:space="preserve">Billing </tspan>
          <tspan font-family="Montserrat" font-size="24" fill="white" x="16.4" y="52" xml:space="preserve">Domain</tspan>
        </text>
      </g>
      <g id="Line_51">
        <line x1="1369.75" y1="438.38477" x2="1491.1496" y2="438.38477" stroke="#0048aa" stroke-linecap="round" stroke-linejoin="round" stroke-width="3"/>
      </g>
      <g id="Graphic_50">
        <rect x="1413.7862" y="422.38477" width="33.184" height="32" fill="white"/>
        <text transform="translate(1418.7862 427.38477)" fill="black">
          <tspan font-family="Montserrat" font-size="18" fill="black" x="55422333e-20" y="17" xml:space="preserve">Bx</tspan>
        </text>
      </g>
      <g id="Line_53">
        <line x1="1162.2266" y1="438.38477" x2="1269.75" y2="438.38477" stroke="#0048aa" stroke-linecap="round" stroke-linejoin="round" stroke-width="3"/>
      </g>
      <g id="Graphic_52">
        <rect x="1188.0199" y="422.38477" width="55.81" height="32" fill="white"/>
        <text transform="translate(1193.0199 427.38477)" fill="black">
          <tspan font-family="Montserrat" font-size="18" fill="black" x="6536993e-19" y="17" xml:space="preserve">SFTP</tspan>
        </text>
      </g>
      <g id="Line_55">
        <line x1="981.553" y1="357.27008" x2="1062.3586" y2="407.4296" stroke="#0048aa" stroke-linecap="round" stroke-linejoin="round" stroke-width="3"/>
      </g>
      <g id="Line_57">
        <line x1="1012.6928" y1="438.38477" x2="1062.2266" y2="438.38477" stroke="#0048aa" stroke-linecap="round" stroke-linejoin="round" stroke-width="3"/>
      </g>
      <g id="Line_59">
        <line x1="984.7683" y1="517.50356" x2="1062.3586" y2="469.33995" stroke="#0048aa" stroke-linecap="round" stroke-linejoin="round" stroke-width="3"/>
      </g>
    </g>
  </g>
</svg>
